<svg xmlns="http://www.w3.org/2000/svg" viewBox="0 0 700 391" role="img" aria-label="Rodri Roots Tattoo">
<g fill="#d3a06f" fill-rule="evenodd"><path d="M371 334L373 338L408 336L547 335L410 334L375 332Z"/><path d="M360 332L356 336L363 335L365 337L365 340L361 343L357 338L356 342L358 344L364 344L367 341L367 335L363 332Z"/><path d="M327 333L324 338L325 341L328 344L334 344L336 340L334 339L331 343L327 340L327 337L331 334L335 336L336 335L332 332Z"/><path d="M320 337L320 333L318 332L278 334L148 335Z"/><path d="M346 329L341 337L346 348L351 339Z"/><path d="M346 334L349 338L346 342L343 338Z"/><path d="M533 308L532 318L537 325L542 327L553 327L558 324L557 321L550 325L540 324L534 318L533 312L535 307Z"/><path d="M171 309L168 307L169 317L164 323L159 325L153 325L147 321L145 321L144 323L150 327L164 326L169 322L171 318Z"/><path d="M572 306L546 307L541 311L541 315L543 318L547 319L549 317L549 313L547 313L548 315L546 317L543 315L546 309L562 309Z"/><path d="M131 306L140 309L153 308L159 312L159 315L157 317L155 313L153 314L153 317L155 319L158 319L161 316L161 311L156 307Z"/><path d="M529 300L530 303L589 302L601 303L605 306L605 304L607 303L615 309L616 318L613 321L609 321L606 317L606 322L612 324L619 318L618 309L608 302L581 300Z"/><path d="M75 316L80 323L85 324L89 321L89 318L87 316L87 319L85 321L82 321L78 317L80 308L87 303L90 304L89 307L94 303L174 303L174 300L91 301L80 305L75 312Z"/><path d="M146 281L135 288L123 290L135 289L141 286Z"/><path d="M85 276L76 280L68 280L55 287L54 289L69 281L81 280Z"/><path d="M600 275L606 281L613 284L636 285L642 288L641 286L633 283L619 284L611 281L606 281L605 278Z"/><path d="M547 272L539 272L532 278L531 289L534 294L538 295L533 286L533 283L538 276L544 274L550 278L550 282L548 284L546 284L544 281L543 282L546 287L552 284L552 277Z"/><path d="M156 272L152 275L150 282L154 287L157 287L159 285L159 282L157 284L154 284L152 281L153 278L158 274L165 276L170 283L169 290L165 295L166 296L171 292L173 282L168 274L164 272Z"/><path d="M626 250L619 256L613 257L621 256Z"/><path d="M462 250L455 256L445 258L457 256L461 253Z"/><path d="M329 247L323 252L312 254L320 254L327 250Z"/><path d="M542 238L539 244L530 251L523 252L513 249L523 253L533 251L540 244Z"/><path d="M179 233L173 247L161 258L153 261L145 261L139 259L135 262L139 260L154 261L164 257L174 247Z"/><path d="M402 230L402 233L405 237L404 231Z"/><path d="M360 226L350 236L347 234L350 238Z"/><path d="M241 221L236 233L228 242L220 246L204 248L191 252L217 248L227 244L237 233Z"/><path d="M492 219L487 232L479 240L471 243L465 243L475 243L481 240L488 232Z"/><path d="M80 215L77 219L77 259L78 265L84 272L83 268L79 264Z"/><path d="M583 201L578 204L578 208Z"/><path d="M149 198L146 201L146 206Z"/><path d="M397 189L397 222L398 226L401 228L399 225L399 189Z"/><path d="M274 188L271 191L271 225L278 236L272 240L262 238L266 240L276 240L279 238L279 235L273 228L272 224L272 195Z"/><path d="M215 188L211 191L211 231L212 192Z"/><path d="M117 179L112 193L106 200L112 195L116 186Z"/><path d="M337 178L333 181L332 184Z"/><path d="M303 159L301 170L294 179L299 175L301 171Z"/><path d="M434 158L430 170L423 178L429 173Z"/><path d="M649 157L645 160L643 165Z"/><path d="M555 152L552 156L552 161L553 156L556 153Z"/><path d="M400 133L398 133L398 136Z"/><path d="M415 109L512 115L567 121L576 124L604 124L580 121L577 119L557 119L495 112L443 108Z"/><path d="M277 109L248 108L197 112L125 120L116 119L113 121L98 122L86 125L100 123L117 124L135 120L205 113Z"/><path d="M355 106L364 107L358 103Z"/><path d="M336 105L334 103L329 107Z"/><path d="M438 102L448 102L457 105L450 101Z"/><path d="M235 105L243 102L253 102L241 101L236 103Z"/><path d="M530 110L526 106L517 105L517 100L515 98L512 98L513 102L507 106L492 106L486 104L493 107L523 107L527 112L529 112Z"/><path d="M163 110L164 112L166 112L170 107L200 107L207 104L200 106L186 106L181 104L179 101L181 99L178 98L176 100L176 105L167 106Z"/><path d="M346 97L341 103L346 110L351 104Z"/><path d="M317 97L323 96L318 94Z"/><path d="M369 92L368 93L370 96L372 96Z"/><path d="M332 81L330 84L334 88L336 86L336 82Z"/><path d="M210 106L213 108L218 106L219 104L215 105L214 103L221 98L239 96L283 107L314 107L329 101L337 94L344 82L346 87L349 82L353 91L359 98L371 105L379 107L407 107L452 96L471 98L479 104L473 104L474 106L482 107L482 103L478 99L468 95L451 94L435 97L434 96L436 94L436 91L433 89L430 89L432 91L429 95L418 101L403 104L400 106L389 106L389 104L398 99L401 93L401 87L399 83L395 79L389 77L381 80L378 88L381 93L386 94L388 92L387 88L383 91L381 89L381 84L386 80L391 80L398 87L397 96L392 101L387 103L370 102L361 97L354 89L354 87L357 87L361 84L361 82L358 81L354 87L351 83L352 73L360 64L366 63L372 68L370 75L367 76L365 74L366 71L362 73L364 77L369 78L373 75L374 67L371 63L367 61L361 61L358 63L356 62L360 59L367 58L369 56L369 52L366 51L366 54L357 59L351 66L350 64L353 58L353 51L347 41L343 44L339 52L339 58L341 61L340 64L334 58L328 56L326 54L326 51L323 52L323 56L325 58L330 58L336 62L334 63L325 61L321 63L318 67L318 74L323 78L328 77L329 72L326 71L327 74L323 76L320 73L320 68L324 64L331 64L339 71L341 82L336 92L322 102L305 103L295 96L294 87L301 80L306 80L311 85L311 89L309 91L305 89L303 90L306 94L311 93L314 88L313 83L309 79L299 78L293 83L291 92L294 99L303 104L303 106L292 106L289 104L274 101L263 95L260 91L261 89L256 91L256 94L258 96L257 98L247 95L231 94L221 96L212 101Z"/><path d="M432 95L433 94L434 96L433 97Z"/><path d="M258 95L259 94L261 96L259 97Z"/><path d="M349 66L350 65L351 67L350 68Z"/><path d="M340 64L341 63L342 65L341 66Z"/><path d="M346 45L351 52L351 57L348 62L346 54L344 61L341 56L341 53Z"/></g>
<g fill="#eeeae5" fill-rule="evenodd"><path d="M493 269L489 271L484 278L483 289L481 294L483 297L483 304L486 312L493 317L500 317L508 311L511 296L513 293L511 290L511 284L508 275L501 269Z"/><path d="M496 272L500 273L505 280L505 306L504 309L497 314L491 311L488 302L488 296L490 294L488 289L490 276Z"/><path d="M436 269L429 275L426 283L426 290L424 293L426 296L427 307L430 313L436 317L444 317L450 313L454 304L454 296L457 293L454 289L454 282L450 273L444 269Z"/><path d="M439 272L444 273L446 275L449 284L449 290L447 292L449 296L448 307L443 313L440 314L437 313L432 306L432 279Z"/><path d="M368 269L368 281L373 273L381 274L381 288L379 292L381 298L381 309L380 313L377 316L390 316L386 312L386 296L388 294L386 290L386 274L394 273L397 277L397 280L399 281L399 269Z"/><path d="M309 269L309 281L314 273L322 274L322 290L319 293L322 297L322 311L318 316L331 316L327 312L327 296L330 293L327 290L327 274L335 273L340 281L340 269Z"/><path d="M262 269L263 277L260 289L256 293L258 296L253 313L249 316L261 316L258 313L261 303L273 303L276 309L276 314L274 316L286 316L281 310L278 298L280 293L276 288L273 277L274 269Z"/><path d="M267 277L269 278L273 296L272 299L262 298Z"/><path d="M194 269L193 281L198 273L206 274L206 290L204 293L206 296L206 312L202 316L215 316L212 313L212 295L214 293L212 291L212 274L219 273L224 281L224 270Z"/><path d="M349 209L340 220L347 228L348 232L358 221Z"/><path d="M80 149L78 149L78 194Z"/><path d="M545 133L545 157L547 160L547 154L551 147L558 146L562 148L562 187L561 190L557 193L561 198L562 203L561 246L555 252L561 254L567 252L571 256L578 258L573 251L573 201L577 198L573 192L573 150L578 149L583 151L586 155L586 164L590 167L590 138L586 142L571 141L567 138L565 140L550 138Z"/><path d="M153 133L150 137L145 138L138 143L144 143L140 149L138 148L136 150L133 158L130 158L129 160L128 191L122 198L125 199L128 203L128 232L130 239L132 237L135 239L134 244L137 248L135 261L136 257L139 254L154 255L162 251L169 244L171 240L170 238L173 237L177 224L177 193L182 188L177 184L176 154L171 145L167 142L167 139L159 136L157 137Z"/><path d="M138 239L141 240L142 245L140 247L137 240Z"/><path d="M151 142L155 142L159 145L164 159L164 187L160 191L164 195L164 229L160 243L154 248L153 253L149 251L151 249L144 244L141 232L141 199L146 194L141 188L142 159L146 147Z"/><path d="M152 137L158 136L161 142L152 142Z"/><path d="M521 132L517 135L510 137L512 141L505 148L504 146L500 155L500 179L495 184L500 189L500 221L502 228L506 231L505 232L507 237L513 243L523 247L530 245L537 238L542 225L542 196L547 191L542 186L542 160L539 149L530 137Z"/><path d="M520 140L524 141L527 144L531 160L531 184L527 188L531 193L531 223L529 233L527 237L523 240L516 238L512 228L511 220L511 192L516 187L511 181L512 153L514 146Z"/><path d="M57 139L51 144L47 150L53 148L56 151L57 155L56 190L58 196L57 200L48 211L53 211L56 214L57 224L59 225L57 226L57 267L55 276L50 283L60 278L64 272L66 274L74 274L78 272L72 267L71 264L70 231L71 212L73 210L77 210L79 215L79 210L81 208L88 209L95 217L96 230L98 231L97 247L99 261L102 268L104 265L105 266L103 271L105 276L110 281L120 285L135 283L141 280L147 274L147 268L144 274L135 281L128 281L124 279L117 271L112 253L109 210L105 205L96 201L108 190L111 184L110 183L112 181L111 180L114 168L118 165L112 160L112 152L109 143L103 137L101 141L101 136L92 132L76 132Z"/><path d="M62 218L63 222L60 224L59 223Z"/><path d="M67 199L68 198L70 201L68 202Z"/><path d="M61 156L62 159L60 163L59 158Z"/><path d="M82 138L89 140L95 146L98 153L99 163L102 163L104 165L104 168L100 169L98 165L96 167L102 171L99 173L94 190L86 198L80 200L78 196L78 200L72 205L70 158L71 143L77 139Z"/><path d="M617 130L608 133L606 135L613 136L605 140L602 144L598 145L594 159L595 167L602 184L614 198L614 203L612 205L617 203L626 213L634 227L637 239L636 254L633 261L626 268L621 270L615 270L608 267L600 259L596 248L597 234L600 229L604 227L609 227L614 231L617 243L612 252L618 251L622 247L624 241L626 240L621 227L616 222L611 220L602 220L598 222L600 223L602 221L603 223L596 229L592 241L590 234L592 231L591 230L589 234L588 246L594 262L598 259L600 262L597 265L598 267L607 273L606 280L608 280L611 276L628 277L639 283L634 276L642 269L642 266L646 263L649 256L651 246L650 230L647 220L641 208L631 196L634 191L627 191L612 173L607 161L607 149L609 144L617 137L623 139L628 144L631 152L631 161L628 168L634 167L639 175L638 164L642 159L642 156L647 151L645 151L640 146L636 138L633 137L631 134Z"/><path d="M636 264L636 269L634 267Z"/><path d="M221 130L204 132L200 135L196 133L187 133L193 141L193 182L188 187L193 191L193 238L187 247L192 246L199 241L205 243L218 241L224 238L231 231L239 214L239 187L241 183L244 181L239 176L239 151L236 142L232 136Z"/><path d="M228 226L229 225L230 227L229 228Z"/><path d="M214 136L220 138L223 141L226 149L227 177L222 183L227 187L227 210L226 219L222 229L215 235L206 235L206 189L210 185L206 181L205 139Z"/><path d="M466 126L463 129L459 129L453 132L451 140L446 143L443 151L443 174L438 178L443 184L443 213L446 221L448 217L450 218L449 228L460 237L471 238L481 231L486 222L488 216L488 188L493 183L488 178L488 152L486 145L481 136L477 132L469 129Z"/><path d="M466 134L472 138L476 150L476 177L472 181L476 186L476 216L473 227L465 233L459 228L455 216L455 185L459 181L455 175L455 156L457 143L459 139Z"/><path d="M248 128L254 136L254 174L248 181L251 182L254 186L254 227L253 231L247 237L254 236L259 232L263 234L272 234L267 230L266 227L266 185L269 183L272 186L273 183L276 183L281 186L284 192L288 229L290 231L290 235L294 238L294 242L298 246L309 250L314 250L322 247L326 243L326 241L321 247L312 248L304 240L301 233L297 213L298 211L295 191L296 187L292 182L285 178L293 173L298 165L299 155L302 152L298 148L298 140L293 131L284 126L270 126L262 128L260 130L252 127Z"/><path d="M278 132L284 137L286 141L286 164L283 170L278 175L273 176L271 161L271 177L267 179L266 135L269 132Z"/><path d="M309 124L315 132L315 171L310 175L315 181L315 222L313 228L309 232L316 231L321 227L324 230L333 231L327 223L327 181L332 175L327 170L326 149L328 129L333 124L326 124L322 127L315 124Z"/><path d="M322 151L324 150L325 152L324 153Z"/><path d="M372 124L368 128L369 131L372 126L377 129L378 168L369 177L370 179L371 176L375 177L378 182L378 219L377 225L371 231L377 231L379 229L380 230L385 228L392 232L398 232L392 227L391 224L391 182L393 180L398 183L399 188L399 182L404 181L410 186L413 193L417 230L419 231L418 234L423 239L423 243L430 249L437 252L449 253L457 250L460 244L453 251L445 251L442 250L435 243L429 226L425 186L414 177L425 169L429 160L429 155L432 152L432 150L429 147L429 141L425 131L417 124L406 120L407 122L405 125L403 123L403 120L378 121Z"/><path d="M399 125L408 128L413 133L416 142L416 148L414 149L416 152L416 157L412 167L407 172L400 174L398 137L398 168L397 173L395 175L392 175L391 129L394 126Z"/></g>
</svg>